<?xml version="1.0" encoding="UTF-8"?>
<svg data-bbox="-0.5 0.477 500 499.023" height="500" width="500" xmlns="http://www.w3.org/2000/svg" shape-rendering="geometricPrecision" text-rendering="geometricPrecision" image-rendering="optimizeQuality" fill-rule="evenodd" clip-rule="evenodd" data-type="ugc">
    <g>
        <path d="M236.5 1.5q5.477-.998 11.5-1 9.111-.24 17.5 2a445 445 0 0 0-29-1" fill="#96d0f8"/>
        <path d="M236.5 1.5q14.52.027 29 1 32.244 6.11 52 32-.11 2.29 2 3 4.503 3.992 6 10-.11 2.29 2 3 1.676 4.773 6 2 3.597.36 6-2 1.602-1.401 4-1a204.6 204.6 0 0 1 40 0q46.188 12.186 63 57-.135 3.978 2 7 1.927 4.633 2 10a281 281 0 0 1-1 27q-.393 8.082-4 15-2.147 1.92-2 5h7a27.2 27.2 0 0 1 8 4q.802 2.919 4 3 14.573 9.072 23 24-.11 2.29 2 3 3.261 4.523 5 10 .285 5.032 3 9-.135 3.978 2 7-.207 7.371 2 14v18a111.5 111.5 0 0 1-4 14q-2.147 1.92-2 5a74.3 74.3 0 0 1-6.5 15q-15.711 22.947-40.5 35-.501 4.486 3 7v2q.639 5.89 3 11 5.91 63.436-50 93.5a40 40 0 0 1-14 4.5q-3.873-.712-6 2-15.949 3.237-32 .5-5.89-1.086-11-3.5-2.403-2.361-6-2-13.254 28.218-40 44.5a45.1 45.1 0 0 1-15 5.5 16.9 16.9 0 0 0-8 1q-.544 1.025-1 2h-39q0-1-1-1-3.022-2.135-7-2-25.776-8.52-42.5-30a13969 13969 0 0 0-11-18q-26.163 10.993-53.5 4-3.022-2.135-7-2-10.56-2.532-19-9-.71-2.11-3-2-43.587-31.193-38.5-85 .61-4.863 2.5-9 2.136-3.022 2-7a20.7 20.7 0 0 0 1-5q-44.663-19.173-54-67v-20q2.208-6.629 2-14 2.136-3.022 2-7 6.009-21.988 23-37 3.373-.87 5-4 9.383-8.21 21-13.5-5.6-10.55-6-22.5a355 355 0 0 1 1-30q2.136-3.022 2-7 2.788-10.904 9-20 2.11-.71 2-3 17.61-27.075 49-36 4.392-.098 8-2 16.453-3.934 33 0 .166.925 1 1.5 2.96.743 6 .5 3.297.563 6 2 .626.936 2 1 1.82-.37 2-2 14.19-34.189 49-47 5.493-.335 10-3a27.1 27.1 0 0 1 10-2" fill="#0596f1"/>
        <path d="M226.5 3.5q-4.507 2.665-10 3 4.507-2.665 10-3" fill="#6ebdf6"/>
        <path d="M317.5 34.5q2.11.71 2 3-2.11-.71-2-3" fill="#8dcbf7"/>
        <path d="M383.5 49.5a204.6 204.6 0 0 0-40 0q9.51-3.416 20-3 10.49-.416 20 3" fill="#69b5f5"/>
        <path d="M325.5 47.5q2.11.71 2 3-2.11-.71-2-3" fill="#abd9fa"/>
        <path d="M117.5 50.5q-3.608 1.902-8 2 3.507-2.31 8-2" fill="#7cc5f7"/>
        <path d="M150.5 50.5q3.851.332 7 2a18.4 18.4 0 0 1-6-.5q-.834-.575-1-1.5" fill="#7ac0f6"/>
        <path d="M339.5 50.5q-2.403 2.36-6 2 2.403-2.36 6-2" fill="#6bbbf5"/>
        <path d="M167.5 53.5q-.18 1.63-2 2-1.374-.064-2-1 2.188.1 4-1" fill="#a1d6f9"/>
        <path d="M60.5 88.5q.11 2.29-2 3-.11-2.29 2-3" fill="#90ccf8"/>
        <path d="M446.5 106.5q2.135 3.022 2 7-2.135-3.022-2-7" fill="#80c5f7"/>
        <path d="M49.5 111.5q.136 3.978-2 7-.136-3.978 2-7" fill="#76c1f6"/>
        <path d="M450.5 123.5q.998 5.226 1 11 .273 8.38-2 16a281 281 0 0 0 1-27" fill="#82c8f7"/>
        <path d="M47.5 118.5a355 355 0 0 0-1 30q-.999-5.477-1-11.5-.195-9.599 2-18.5" fill="#5eb5f5"/>
        <path d="M337.5 160.5q24.31-2.655 29 21-.113 6.953-3.5 13a33286 33286 0 0 1-143.5 159 4137 4137 0 0 1-94.5-93q-11.007-22.98 11.5-34.5 10.614-2.034 20 3a2628 2628 0 0 0 61.5 60.5 9232 9232 0 0 1 108-121q5.196-4.958 11.5-8" fill="#fefefe"/>
        <path d="M445.5 165.5v3q3.08-.147 5 2h-7q-.147-3.08 2-5" fill="#68b3f5"/>
        <path d="M458.5 174.5q2.596.789 4 3-3.198-.081-4-3" fill="#93cbf8"/>
        <path d="M31.5 184.5q-1.627 3.13-5 4 1.627-3.13 5-4" fill="#71bdf5"/>
        <path d="M485.5 201.5q2.11.71 2 3-2.11-.71-2-3" fill="#8fccf8"/>
        <path d="M492.5 214.5q2.958 3.876 3 9-2.715-3.968-3-9" fill="#7bc0f6"/>
        <path d="M495.5 223.5q2.135 3.022 2 7-2.135-3.022-2-7" fill="#6ebdf6"/>
        <path d="M3.5 225.5q.135 3.978-2 7-.136-3.978 2-7" fill="#74bff6"/>
        <path d="M1.5 232.5q.208 7.371-2 14v-8z" fill="#6cbaf5"/>
        <path d="m497.5 230.5 2 6v8q-2.207-6.629-2-14" fill="#79c3f7"/>
        <path d="M495.5 276.5q.147 3.08-2 5-.147-3.08 2-5" fill="#8fcef8"/>
        <path d="M446.5 331.5q2.347 3.014 3 7-3.501-2.514-3-7" fill="#72bcf6"/>
        <path d="M52.5 338.5q.136 3.978-2 7-.136-3.978 2-7" fill="#75c0f6"/>
        <path d="M449.5 340.5q2.975 4.949 3 11-2.361-5.11-3-11" fill="#7bc4f6"/>
        <path d="M86.5 439.5q2.29-.11 3 2-2.29.11-3-2" fill="#93cff8"/>
        <path d="M333.5 446.5q3.597-.361 6 2-3.597.361-6-2" fill="#71bef6"/>
        <path d="M388.5 449.5q-2.703 1.437-6 2 2.127-2.712 6-2" fill="#79bdf6"/>
        <path d="M108.5 450.5q3.978-.135 7 2-3.978.135-7-2" fill="#8bcbf8"/>
        <path d="M278.5 496.5a24.6 24.6 0 0 1-7 3h-2q.456-.975 1-2a16.9 16.9 0 0 1 8-1" fill="#73b9f5"/>
        <path d="M222.5 496.5q3.978-.135 7 2-3.978.135-7-2" fill="#8cccf8"/>
    </g>
</svg>
