<?xml version="1.0" encoding="UTF-8"?>
<svg data-bbox="0 0 500 500" height="500" width="500" xmlns="http://www.w3.org/2000/svg" data-type="color">
    <g>
        <path fill="#E2BB22" d="M174 0c5.838 1.411 10.682 3.754 15.938 6.625q2.537 1.362 5.078 2.719l2.545 1.363c3.514 1.863 7.064 3.65 10.626 5.418l1.963.975 3.898 1.932q3.978 1.976 7.948 3.966 1.99.994 3.983 1.983c3.485 1.73 6.941 3.5 10.373 5.335l2.168 1.14q2.05 1.077 4.078 2.194c2.925 1.524 5.08 2.355 8.398 2.307 3.74-1.191 7.038-2.915 10.441-4.832 6.875-3.76 13.849-7.224 20.938-10.562 7.384-3.486 14.67-7.096 21.875-10.938 10.8-5.73 10.8-5.73 15.188-7.875L321.87.547C324 0 324 0 325.947.77c5.985 3.585 9.376 10.115 12.428 16.168l1.154 2.231c2.895 5.622 5.714 11.284 8.521 16.95A455 455 0 0 0 355 49.5a701 701 0 0 1 8.438 16.188l1.037 2.035c1.538 3.07 2.773 5.93 3.525 9.277l2.253.396c27.38 4.817 27.38 4.817 37.919 7.022 4.465.93 8.932 1.782 13.43 2.54 2.712.461 5.419.948 8.126 1.437 1.97.346 3.945.66 5.92.972 7.074 1.296 12.306 2.771 17.086 8.371 2.27 4.055 1.743 7.442.954 11.887l-.382 2.793a298 298 0 0 1-.86 5.78 276 276 0 0 0-1.102 7.693q-.68 5.192-1.414 10.379c-1.145 8.199-2.21 16.408-3.271 24.618q-.345 2.663-.693 5.324a3715 3715 0 0 0-.978 7.542l-.302 2.295c-1.299 7.313-1.299 7.313 1.404 13.713q1.406 1.48 2.848 2.925l3.05 3.192 1.546 1.594c2.084 2.17 4.088 4.408 6.091 6.652l2.195 2.445L464 209l4.5 5c9 10 9 10 11.223 12.477a710 710 0 0 0 4.773 5.234l2.442 2.664 2.214 2.398c1.678 2.023 2.803 3.83 3.848 6.227h2a159 159 0 0 1 5 6c-1.37 2.95-2.878 5.525-5 8h-2l-.8 1.797c-1.244 2.283-2.504 3.677-4.387 5.453-6.42 6.247-12.004 13.154-17.602 20.137-2.281 2.696-4.7 5.13-7.211 7.613-2.727 2.836-5.426 5.7-8.125 8.563l-2.168 2.287-2.09 2.216-1.887 1.999L447 309l-1.739 1.88c-1.715 2.884-1.42 4.654-1.062 7.968l.361 3.504L445 326l.405 3.48a937 937 0 0 0 1.408 10.957l.526 4.03q1.227 9.367 2.501 18.73.412 3.024.82 6.05.511 3.759 1.033 7.516.467 3.438.883 6.883.435 3.426 1.04 6.826c.644 4.395 1.156 7.902-.786 11.993-5.77 6.862-14.154 7.727-22.517 9.098q-2.3.412-4.597.834-4.838.88-9.684 1.718c-5.128.893-10.24 1.86-15.352 2.842l-2.547.489-5 .96c-3.892.746-7.788 1.48-11.684 2.211l-3.927.738q-4.753.868-9.522 1.645l-.8 2.602c-1.218 3.448-2.698 6.528-4.395 9.765l-.935 1.794q-1.493 2.86-2.995 5.714a7794 7794 0 0 0-4.117 7.895l-1.011 1.937a640 640 0 0 0-6.997 13.856c-3.015 6.079-6.16 12.086-9.375 18.062l-1.345 2.553c-2.786 5.118-5.707 8.905-10.03 12.822-5.838-1.411-10.682-3.754-15.937-6.625q-2.538-1.362-5.079-2.719l-2.545-1.363c-3.514-1.863-7.064-3.65-10.627-5.418l-1.962-.975-3.898-1.932q-3.978-1.975-7.948-3.966-1.99-.995-3.983-1.983c-3.485-1.73-6.941-3.5-10.373-5.335l-2.168-1.14a234 234 0 0 1-4.078-2.194c-2.925-1.524-5.08-2.355-8.398-2.307-3.74 1.191-7.038 2.915-10.441 4.832-6.875 3.76-13.849 7.224-20.938 10.563-7.384 3.485-14.67 7.095-21.875 10.937-10.8 5.73-10.8 5.73-15.187 7.875l-2.434 1.203C176 500 176 500 174.053 499.23c-5.985-3.585-9.376-10.115-12.428-16.168l-1.154-2.231c-2.895-5.622-5.714-11.284-8.521-16.95A455 455 0 0 0 145 450.5a701 701 0 0 1-8.437-16.187l-1.038-2.036c-1.538-3.07-2.773-5.93-3.525-9.277l-2.174-.38c-13.883-2.432-27.756-4.894-41.56-7.75a403 403 0 0 0-16.102-3.015l-3.411-.593q-3.21-.558-6.433-1.035c-6.382-1.142-10.609-3.024-14.955-7.946-2.417-4.04-1.85-7.416-1.053-11.906l.382-2.793q.402-2.894.86-5.78c.408-2.56.767-5.121 1.102-7.693q.68-5.192 1.414-10.379c1.145-8.199 2.21-16.408 3.271-24.618q.345-2.663.693-5.324.494-3.771.978-7.542l.302-2.295c1.259-6.915 1.259-6.915-.86-13.17L52.25 308.5l-2.477-2.617-1.352-1.402c-2.556-2.664-5.045-5.39-7.546-8.106l-1.57-1.695a424 424 0 0 1-9.465-10.59c-2.407-2.734-4.873-5.411-7.34-8.09a533 533 0 0 1-10.664-11.91C7.954 259.67 3.968 255.343 0 251c1.603-3.828 4.055-6.425 6.875-9.437l1.46-1.572q2.326-2.5 4.665-4.991c9.11-9.65 9.11-9.65 17.402-20 2.024-2.533 4.292-4.72 6.598-7 2.727-2.836 5.426-5.7 8.125-8.562l2.168-2.288 2.09-2.216 1.887-1.999L53 191l1.739-1.88c1.715-2.884 1.42-4.654 1.062-7.968l-.361-3.504L55 174l-.405-3.48a967 967 0 0 0-1.407-10.958l-.527-4.028a3714 3714 0 0 0-2.501-18.73q-.412-3.026-.82-6.05-.511-3.76-1.033-7.517a450 450 0 0 1-.883-6.883 139 139 0 0 0-1.04-6.826c-.644-4.395-1.156-7.902.786-11.993 5.77-6.862 14.154-7.727 22.518-9.097q2.298-.414 4.596-.835 4.838-.88 9.684-1.718c5.128-.893 10.24-1.86 15.352-2.842l2.547-.489 5-.96c3.892-.746 7.788-1.48 11.684-2.211l3.927-.738Q127.232 77.777 132 77l.8-2.602c1.218-3.448 2.698-6.528 4.395-9.765l.935-1.794q1.493-2.86 2.995-5.714a7794 7794 0 0 0 4.117-7.895l1.011-1.937a640 640 0 0 0 6.997-13.855c3.015-6.08 6.16-12.087 9.375-18.063l1.345-2.553C166.756 7.704 169.677 3.917 174 0" data-color="1"/>
        <path fill="#FDFDFD" d="M330.692 156.147c2.766 1.022 3.804 2.111 5.62 4.415 4.679 5.673 9.723 10.854 15.376 15.563 2.274 1.896 4.2 3.822 6.062 6.125 2.138 2.886 2.138 2.886 5.25 4.75-.323 5.244-3.372 7.923-6.928 11.41l-1.896 1.906c-2.102 2.108-4.218 4.202-6.334 6.296l-4.523 4.525a4903 4903 0 0 1-12.315 12.265c-4.293 4.268-8.574 8.546-12.857 12.824q-12.171 12.148-24.362 24.277c-9.251 9.206-18.49 18.424-27.729 27.642A64719 64719 0 0 1 209 345c-2.88-1.381-4.823-2.613-6.968-4.992l-1.702-1.858-1.83-2.025c-6.97-7.589-14.193-14.89-21.533-22.12-3.6-3.564-7.133-7.124-10.432-10.97-4.263-4.967-8.937-9.507-13.597-14.098C140.38 276.566 140.38 276.566 137 272c.355-2.196.355-2.196 1-4h2l.797-1.824c1.27-2.295 2.405-3.388 4.453-4.989 3.16-2.59 5.682-5.378 8.274-8.523 1.455-1.64 2.956-2.98 4.664-4.352 2.797-2.092 2.797-2.092 4.312-4.437 2.06-2.574 4.557-3.475 7.5-4.875l1.391 1.404q7.145 7.211 14.308 14.404 2.673 2.689 5.342 5.384 3.829 3.863 7.67 7.714l2.421 2.453 2.245 2.244 1.978 1.992c1.538 1.621 1.538 1.621 3.645 1.405 1.433-1.41 1.433-1.41 2.938-3.3 4.744-5.573 9.902-10.72 15.059-15.906l3.289-3.318q5.357-5.402 10.722-10.793l1.848-1.857q8.629-8.678 17.27-17.344a9735 9735 0 0 0 22.028-22.162 5732 5732 0 0 1 15.529-15.608c3.094-3.1 6.184-6.204 9.26-9.32a1432 1432 0 0 1 8.703-8.735q1.601-1.6 3.186-3.218a388 388 0 0 1 4.362-4.361l2.461-2.474C328 156 328 156 330.692 156.147" data-color="2"/>
        <path fill="#D39C22" d="M174 0c5.838 1.411 10.682 3.754 15.938 6.625q2.537 1.362 5.078 2.719l2.545 1.363c3.514 1.863 7.064 3.65 10.626 5.418l1.963.975 3.898 1.932q3.978 1.976 7.948 3.966 1.99.994 3.983 1.983c3.485 1.73 6.941 3.5 10.373 5.335l2.168 1.14q2.05 1.077 4.078 2.194c2.925 1.524 5.08 2.355 8.398 2.307 3.74-1.191 7.038-2.915 10.441-4.832 6.875-3.76 13.849-7.224 20.938-10.562 7.384-3.486 14.67-7.096 21.875-10.938 10.8-5.73 10.8-5.73 15.188-7.875L321.87.547C324 0 324 0 325.947.77c5.985 3.585 9.376 10.115 12.428 16.168l1.154 2.231c2.895 5.622 5.714 11.284 8.521 16.95A455 455 0 0 0 355 49.5a701 701 0 0 1 8.438 16.188l1.037 2.035c1.538 3.07 2.773 5.93 3.525 9.277l2.253.396c27.38 4.817 27.38 4.817 37.919 7.022 4.465.93 8.932 1.782 13.43 2.54 2.712.461 5.419.948 8.126 1.437 1.97.346 3.945.66 5.92.972 7.074 1.296 12.306 2.771 17.086 8.371 2.27 4.055 1.743 7.442.954 11.887l-.382 2.793a298 298 0 0 1-.86 5.78 276 276 0 0 0-1.102 7.693q-.68 5.192-1.414 10.379c-1.145 8.199-2.21 16.408-3.271 24.618q-.345 2.663-.693 5.324a3715 3715 0 0 0-.978 7.542l-.302 2.295c-1.299 7.313-1.299 7.313 1.404 13.713q1.406 1.48 2.848 2.925l3.05 3.192 1.546 1.594c2.084 2.17 4.088 4.408 6.091 6.652l2.195 2.445L464 209l4.5 5c9 10 9 10 11.223 12.477a710 710 0 0 0 4.773 5.234l2.442 2.664 2.214 2.398c1.678 2.023 2.803 3.83 3.848 6.227h2a159 159 0 0 1 5 6c-1.37 2.95-2.878 5.525-5 8h-2l-.8 1.797c-1.244 2.283-2.504 3.677-4.387 5.453-6.42 6.247-12.004 13.154-17.602 20.137-2.281 2.696-4.7 5.13-7.211 7.613-2.727 2.836-5.426 5.7-8.125 8.563l-2.168 2.287-2.09 2.216-1.887 1.999L447 309l-1.739 1.88c-1.715 2.884-1.42 4.654-1.062 7.968l.361 3.504L445 326l.405 3.48a937 937 0 0 0 1.408 10.957l.526 4.03q1.227 9.367 2.501 18.73.412 3.024.82 6.05.511 3.759 1.033 7.516.467 3.438.883 6.883.435 3.426 1.04 6.826c.644 4.395 1.156 7.902-.786 11.993-5.77 6.862-14.154 7.727-22.517 9.098q-2.3.412-4.597.834-4.838.88-9.684 1.718c-5.128.893-10.24 1.86-15.352 2.842l-2.547.489-5 .96c-3.892.746-7.788 1.48-11.684 2.211l-3.927.738q-4.753.868-9.522 1.645l-.8 2.602c-1.218 3.448-2.698 6.528-4.395 9.765l-.935 1.794q-1.493 2.86-2.995 5.714a7794 7794 0 0 0-4.117 7.895l-1.011 1.937a640 640 0 0 0-6.997 13.856c-3.015 6.079-6.16 12.086-9.375 18.062l-1.345 2.553c-2.786 5.118-5.707 8.905-10.03 12.822-5.838-1.411-10.682-3.754-15.937-6.625q-2.538-1.362-5.079-2.719l-2.545-1.363c-3.514-1.863-7.064-3.65-10.627-5.418l-1.962-.975-3.898-1.932q-3.978-1.975-7.948-3.966-1.99-.995-3.983-1.983c-3.485-1.73-6.941-3.5-10.373-5.335l-2.168-1.14a234 234 0 0 1-4.078-2.194c-2.925-1.524-5.08-2.355-8.398-2.307-3.74 1.191-7.038 2.915-10.441 4.832-6.875 3.76-13.849 7.224-20.938 10.563-7.384 3.485-14.67 7.095-21.875 10.937-10.8 5.73-10.8 5.73-15.187 7.875l-2.434 1.203C176 500 176 500 174.053 499.23c-5.985-3.585-9.376-10.115-12.428-16.168l-1.154-2.231c-2.895-5.622-5.714-11.284-8.521-16.95A455 455 0 0 0 145 450.5a701 701 0 0 1-8.437-16.187l-1.038-2.036c-1.538-3.07-2.773-5.93-3.525-9.277l-2.174-.38c-13.883-2.432-27.756-4.894-41.56-7.75a403 403 0 0 0-16.102-3.015l-3.411-.593q-3.21-.558-6.433-1.035c-6.382-1.142-10.609-3.024-14.955-7.946-2.417-4.04-1.85-7.416-1.053-11.906l.382-2.793q.402-2.894.86-5.78c.408-2.56.767-5.121 1.102-7.693q.68-5.192 1.414-10.379c1.145-8.199 2.21-16.408 3.271-24.618q.345-2.663.693-5.324.494-3.771.978-7.542l.302-2.295c1.259-6.915 1.259-6.915-.86-13.17L52.25 308.5l-2.477-2.617-1.352-1.402c-2.556-2.664-5.045-5.39-7.546-8.106l-1.57-1.695a424 424 0 0 1-9.465-10.59c-2.407-2.734-4.873-5.411-7.34-8.09a533 533 0 0 1-10.664-11.91C7.954 259.67 3.968 255.343 0 251c1.603-3.828 4.055-6.425 6.875-9.437l1.46-1.572q2.326-2.5 4.665-4.991c9.11-9.65 9.11-9.65 17.402-20 2.024-2.533 4.292-4.72 6.598-7 2.727-2.836 5.426-5.7 8.125-8.562l2.168-2.288 2.09-2.216 1.887-1.999L53 191l1.739-1.88c1.715-2.884 1.42-4.654 1.062-7.968l-.361-3.504L55 174l-.405-3.48a967 967 0 0 0-1.407-10.958l-.527-4.028a3714 3714 0 0 0-2.501-18.73q-.412-3.026-.82-6.05-.511-3.76-1.033-7.517a450 450 0 0 1-.883-6.883 139 139 0 0 0-1.04-6.826c-.644-4.395-1.156-7.902.786-11.993 5.77-6.862 14.154-7.727 22.518-9.097q2.298-.414 4.596-.835 4.838-.88 9.684-1.718c5.128-.893 10.24-1.86 15.352-2.842l2.547-.489 5-.96c3.892-.746 7.788-1.48 11.684-2.211l3.927-.738Q127.232 77.777 132 77l.8-2.602c1.218-3.448 2.698-6.528 4.395-9.765l.935-1.794q1.493-2.86 2.995-5.714a7794 7794 0 0 0 4.117-7.895l1.011-1.937a640 640 0 0 0 6.997-13.855c3.015-6.08 6.16-12.087 9.375-18.063l1.345-2.553C166.756 7.704 169.677 3.917 174 0m1 8-1.07 2.08q-2.398 4.65-4.805 9.295l-1.684 3.273-1.62 3.125-1.492 2.889C163 31 163 31 161 33a80 80 0 0 0-1.734 4.363c-2.4 6.182-5.42 11.968-8.516 17.825l-1.733 3.308a1449 1449 0 0 1-7.646 14.395l-1.138 2.112c-.974 1.803-1.957 3.601-2.94 5.4-1.442 2.412-1.442 2.412-1.293 4.597l-1.861.155c-5.905.535-11.616 1.423-17.412 2.65l-5.269 1.08-2.722.56c-4.5.913-9.013 1.77-13.525 2.625l-2.704.514-8.132 1.541-13.351 2.531C65.34 97.734 59.669 98.856 54 100c.404 7.628 1.255 15.085 2.438 22.625 1.176 7.51 2.107 15.008 2.863 22.572.799 7.963 1.864 15.88 2.981 23.805q.287 2.042.57 4.083.387 2.788.78 5.575c.347 3.147.435 6.178.368 9.34l-2 1-1.187 2.188C58.43 194.883 55.366 197.227 52 200c-3.029 2.776-4.93 5.464-7 9-2.75 3.83-5.81 6.61-9.512 9.473-1.656 1.432-1.656 1.432-1.945 3.586L33 224c-1.879 1.047-1.879 1.047-4 2-1.566 1.5-1.566 1.5-2.937 3.25l-1.547 1.871L23 233c-4.661 5.774-4.661 5.774-8 8l-1.437 2.438C11.957 246.07 10.457 247.22 8 249v2h2v3c2.228 2.48 2.228 2.48 5 5 3.587 3.498 6.794 7.153 10 11l2.5 2.5c2.695 2.695 5.061 5.573 7.5 8.5l2.563 2.563C39.92 285.92 41.919 288.398 44 291l2.5 2.5c2.381 2.381 4.399 4.873 6.5 7.5 3.464 3.819 3.464 3.819 8 6a70 70 0 0 1 1 4l2 1c.202 6.053-.355 11.496-1.43 17.445-.683 4.257-1.139 8.516-1.57 12.805-1.35 13.329-3.084 26.596-4.947 39.863A396 396 0 0 0 54 400l1.774.354q6.951 1.387 13.898 2.794c9.226 1.865 18.45 3.723 27.718 5.375 2.674.477 5.345.968 8.016 1.461 2.93.54 5.861 1.06 8.801 1.545 3.291.544 6.573 1.13 9.856 1.721l3.084.473c6.896 1.296 6.896 1.296 9.514 3.98 1.312 2.045 2.346 4.08 3.339 6.297l1.852 3.543a726 726 0 0 1 1.773 3.644c3.19 6.493 6.501 12.914 9.875 19.313 3.63 6.89 7.18 13.81 10.635 20.79 3.47 6.983 7.158 13.849 10.865 20.71h2v-2l2.098-.31c3.419-.813 6.187-2.15 9.329-3.725l1.889-.942c2.048-1.022 4.093-2.054 6.137-3.086l4.276-2.14q4.471-2.24 8.937-4.49 5.736-2.887 11.477-5.76 4.41-2.208 8.817-4.421l4.235-2.125q2.949-1.48 5.896-2.966l3.393-1.707c2.39-1.103 2.39-1.103 3.516-2.328 6.323-1.013 10.95 2.26 16.285 5.203q3.1 1.665 6.204 3.322l3.245 1.743c5.293 2.807 10.65 5.482 16.012 8.154l3.17 1.583q4.76 2.374 9.522 4.745l6.623 3.305Q316.029 488.03 324 492c3.148-2.94 4.787-6.283 6.625-10.125q1.064-2.177 2.133-4.352l1.114-2.266c1.81-3.621 3.718-7.188 5.628-10.757a675 675 0 0 0 9.47-18.458c2.89-5.816 5.914-11.556 8.973-17.284 4.138-6.592 4.138-6.592 6.057-13.758l1.871-.148c5.013-.443 9.81-1.13 14.703-2.3 2.293-.522 4.58-.96 6.895-1.368 8.264-1.485 16.508-3.07 24.756-4.643l8.504-1.62 5.494-1.046 2.523-.48A1709 1709 0 0 0 446 400c-.388-7.453-1.209-14.708-2.437-22.062-1.258-7.559-2.148-15.099-2.864-22.726-.764-8.106-1.842-16.148-2.981-24.21q-.425-3.032-.843-6.065l-.508-3.597c-.346-3.147-.434-6.178-.367-9.34l2-1v-3l1.688-.687c5.642-3.203 10.38-9.179 14.312-14.313v-2l3-1c1.722-1.92 1.722-1.92 3.375-4.25 2.63-3.577 5.46-6.637 8.625-9.75a632 632 0 0 0 5.375-5.812l1.447-1.586q2.092-2.299 4.178-4.602l2.2-2.418 1.863-2.082 1.597-1.781c1.431-1.701 1.431-1.701 2.336-3.875C489 252 489 252 492 251v-2h-2v-3c-2.228-2.48-2.228-2.48-5-5l-5-5-1.848-1.812c-3.889-3.837-7.594-7.755-11.148-11.903a231 231 0 0 0-4.852-5.351l-1.512-1.624a599 599 0 0 0-2.997-3.186c-2.214-2.377-3.602-4.001-4.643-7.124a187 187 0 0 0-6-5c-2.408-2.16-2.941-2.824-4-6-2.504-1.219-2.504-1.219-5-2v-3l-2-1a629 629 0 0 1 2.438-26.375l.404-3.599c.948-8.359 2.008-16.692 3.158-25.026a4709 4709 0 0 0 1.563-11.812l.384-2.896A496 496 0 0 0 446 100l-2.93-.586-7.812-1.562-2.079-.415q-2.223-.445-4.446-.897c-7.043-1.424-14.104-2.738-21.17-4.04l-3.487-.645c-5.307-.98-10.616-1.953-15.928-2.91-5.642-1.023-11.25-2.186-16.863-3.36-3.385-.702-3.385-.702-7.285-.585-.39-1.025-.39-1.025-.79-2.07-1.382-3.347-2.958-6.573-4.585-9.805l-1.035-2.064c-3.642-7.226-7.403-14.389-11.16-21.555a931 931 0 0 1-9.545-18.756C333.077 23.086 329.029 15.55 325 8c-13.988 6.531-27.829 13.336-41.63 20.25q-5.13 2.567-10.26 5.127l-6.548 3.275-3.086 1.54-2.847 1.429-2.498 1.25c-2.328 1.187-2.328 1.187-5.131 3.129-5.776.847-9.521-1.507-14.383-4.246q-2.548-1.387-5.098-2.77l-2.717-1.48c-4.804-2.58-9.673-5.027-14.544-7.477l-3.01-1.513q-3.03-1.522-6.06-3.04c-3.111-1.56-6.218-3.13-9.325-4.699l-5.98-2.998-2.79-1.413-2.604-1.298-2.27-1.14c-2.39-.998-4.669-1.5-7.219-1.926V8z" data-color="3"/>
        <path fill="#CF8B08" d="M364 192c1.148 4.767 1.554 9.43-1.08 13.785-3.907 5.03-8.585 9.381-13.149 13.806q-2.294 2.29-4.58 4.586c-4.137 4.14-8.31 8.243-12.49 12.339-4.366 4.29-8.697 8.615-13.033 12.936a6843 6843 0 0 1-24.702 24.447 9978 9978 0 0 0-28.113 27.852A21973 21973 0 0 1 209 359c-3.692-1.73-6.067-3.823-8.957-6.727l-1.412-1.413a880 880 0 0 1-2.948-2.97 1021 1021 0 0 0-4.443-4.464c-4.652-4.67-9.158-9.413-13.45-14.42-3.736-4.187-7.794-8.07-11.79-12.006-9.63-9.487-9.63-9.487-13.691-14.25-2.139-2.504-4.31-4.7-6.836-6.812-9.618-8.16-9.618-8.16-10.309-14.333-.11-3.928.253-7.723.836-11.605a227 227 0 0 1 9.688 10.188c5.726 6.33 11.77 12.331 17.854 18.317 3.386 3.348 6.692 6.702 9.786 10.323 4.748 5.521 9.992 10.562 15.172 15.672 6.395 6.31 12.725 12.604 18.5 19.5 4.185-1.639 6.978-4.711 10.073-7.846l1.833-1.832q3.041-3.046 6.07-6.103l4.357-4.366q4.693-4.702 9.377-9.412 7.405-7.443 14.824-14.873A50489 50489 0 0 0 285 268a48843 48843 0 0 1 33.97-34.076q7.376-7.392 14.738-14.796 4.579-4.6 9.165-9.191a2398 2398 0 0 0 4.252-4.274 2075 2075 0 0 1 5.802-5.817l1.702-1.724C360.784 192 360.784 192 364 192" data-color="4"/>
        <path fill="#D1DBE0" d="m164 242 3 1-29 29-1-3 3-1q1.033-1.984 2-4c1.516-1.457 1.516-1.457 3.25-2.812 3.16-2.591 5.682-5.378 8.273-8.524 1.456-1.64 2.957-2.98 4.665-4.351 2.417-1.988 4.09-3.73 5.812-6.313" data-color="5"/>
        <path fill="#E3BB63" d="m174 0 2 1a564 564 0 0 1-3.375 4l-1.898 2.25L169 9h-2c1.555-3.817 4.036-6.192 7-9" data-color="6"/>
    </g>
</svg>
