<?xml version="1.0" standalone="no"?>
<!DOCTYPE svg PUBLIC "-//W3C//DTD SVG 20010904//EN"
 "http://www.w3.org/TR/2001/REC-SVG-20010904/DTD/svg10.dtd">
<svg version="1.0" xmlns="http://www.w3.org/2000/svg"
 width="1000.000000pt" height="198.000000pt" viewBox="0 0 1000.000000 198.000000"
 preserveAspectRatio="xMidYMid meet">

<g transform="translate(0.000000,198.000000) scale(0.100000,-0.100000)"
fill="#000000" stroke="none">
<path d="M5250 1610 l0 -310 -79 0 c-123 0 -173 -20 -256 -105 -78 -78 -121
-156 -155 -275 -38 -137 -25 -376 31 -555 57 -186 149 -290 280 -316 47 -9 63
-8 114 9 51 18 61 18 70 6 8 -12 35 -14 135 -12 l125 3 3 933 2 932 -135 0
-135 0 0 -310z m-22 -556 l22 -6 0 -324 0 -324 -47 -30 c-60 -38 -95 -39 -121
-2 -48 67 -77 230 -69 385 8 168 46 249 132 288 44 21 50 21 83 13z"/>
<path d="M7030 985 l0 -936 133 3 132 3 2 470 2 470 32 23 c42 29 77 38 92 23
9 -9 13 -143 15 -503 l3 -491 82 6 c45 4 104 7 130 7 l48 0 -3 518 c-3 516 -3
517 -26 567 -13 28 -35 63 -50 78 -63 67 -178 94 -271 63 -27 -9 -51 -16 -53
-16 -2 0 -2 146 0 325 l3 325 -136 0 -135 0 0 -935z"/>
<path d="M6508 1851 c-64 -13 -167 -71 -223 -126 -99 -96 -141 -219 -133 -390
4 -88 9 -109 40 -175 39 -85 114 -172 217 -252 129 -101 215 -200 240 -279 30
-93 5 -232 -52 -287 -62 -60 -129 -66 -270 -23 -52 16 -105 27 -116 24 -37
-10 -89 -139 -77 -189 8 -31 39 -46 166 -80 88 -24 124 -29 226 -29 119 0 121
0 197 38 61 30 86 49 117 91 74 98 110 215 110 361 0 93 -18 173 -60 264 -17
35 -30 74 -30 87 0 16 -6 24 -17 24 -10 0 -39 27 -65 59 -26 33 -100 104 -165
158 -151 126 -183 175 -183 278 0 97 29 144 118 187 55 27 69 30 120 25 32 -4
72 -13 88 -22 44 -23 91 -19 108 8 8 12 17 61 21 108 l7 85 -73 22 c-139 41
-223 50 -311 33z m330 -968 c18 -26 15 -33 -17 -33 -26 0 -61 32 -61 56 0 13
65 -7 78 -23z"/>
<path d="M3240 1821 c0 -27 12 -84 90 -416 58 -243 300 -1281 308 -1315 l8
-35 106 -3 c71 -2 117 2 139 11 l32 13 64 244 c86 333 81 307 52 287 -33 -24
-41 -21 -37 11 3 24 7 27 36 24 17 -2 32 -1 32 1 0 3 45 184 101 403 190 753
189 746 178 765 -17 32 -45 39 -156 39 l-109 0 -21 -82 c-116 -464 -264 -1046
-269 -1058 -8 -18 -6 -23 -39 125 -15 66 -52 221 -82 345 -30 124 -63 261 -73
305 -45 193 -72 302 -82 333 l-10 32 -134 0 -134 0 0 -29z"/>
<path d="M2125 1824 c-22 -3 -68 -12 -102 -21 -66 -17 -231 -14 -423 6 -47 6
-156 10 -242 10 -151 1 -158 0 -184 -23 -25 -21 -27 -25 -15 -53 9 -23 10 -40
0 -77 -16 -66 -29 -67 -29 -2 0 82 -12 90 -151 104 -251 26 -322 5 -336 -97
-8 -58 -33 -55 -33 4 0 72 -15 80 -169 95 -248 24 -321 -3 -321 -120 0 -22 -5
-40 -10 -40 -6 0 -19 -14 -30 -32 -23 -38 -24 -84 -24 -683 0 -299 5 -428 18
-554 10 -90 22 -174 27 -188 5 -15 27 -33 56 -46 45 -21 63 -22 303 -23 140 0
334 -6 430 -13 132 -9 215 -10 339 -1 121 8 223 8 383 -1 299 -15 716 -7 828
16 85 17 132 17 376 -1 l80 -6 26 30 c45 54 47 183 13 876 -11 216 -18 284
-30 302 -8 13 -15 46 -15 76 0 29 -9 91 -20 138 -11 47 -20 119 -20 160 0 109
-9 121 -105 144 -64 15 -129 19 -330 21 -137 1 -268 1 -290 -1z m545 -112 l74
-17 28 -160 c15 -88 27 -173 28 -189 l0 -29 -87 6 c-49 3 -126 2 -173 -3 -84
-7 -85 -7 -117 21 -49 42 -167 109 -273 153 -89 37 -103 40 -234 47 -109 6
-148 4 -175 -6 -20 -8 -55 -19 -78 -25 -22 -5 -64 -26 -93 -46 -28 -19 -94
-53 -146 -74 -53 -21 -106 -47 -118 -59 -21 -20 -39 -22 -212 -31 -178 -8
-579 -14 -832 -11 -113 1 -113 1 -106 24 4 12 7 61 6 110 l-1 87 97 1 c53 0
106 2 117 5 11 2 196 7 410 10 l390 6 27 25 c19 18 29 43 38 90 l13 65 211 -6
c116 -3 258 -8 316 -11 63 -3 199 2 340 14 298 23 452 24 550 3z m-2247 -43
c45 -11 84 -35 75 -45 -4 -3 -66 -8 -140 -11 l-133 -6 -15 27 c-12 24 -12 28
0 36 20 13 162 12 213 -1z m520 0 c23 -5 53 -19 67 -30 l25 -20 -150 7 c-148
7 -176 14 -153 41 13 16 151 18 211 2z m1091 -238 c21 -5 60 -23 87 -40 27
-16 74 -38 106 -48 38 -12 73 -33 109 -65 48 -44 52 -52 56 -102 3 -40 15 -72
47 -125 77 -130 81 -260 11 -397 -52 -102 -90 -149 -149 -178 -48 -25 -75 -48
-128 -109 -31 -37 -32 -37 -107 -37 -44 0 -76 4 -76 10 0 15 -49 12 -106 -5
-108 -33 -146 -22 -299 89 -44 32 -92 60 -107 63 -16 3 -28 9 -28 14 0 5 -20
31 -44 58 -46 52 -53 69 -112 280 -21 75 -25 105 -20 151 10 85 44 200 72 242
22 35 87 78 116 78 7 0 54 20 103 45 139 69 350 103 469 76z m765 -194 c14 -6
34 -28 45 -47 30 -50 34 -255 10 -483 -9 -95 -18 -219 -18 -277 l-1 -105 -287
-1 c-158 0 -285 3 -282 7 2 5 31 22 63 39 96 52 143 107 227 270 38 73 39 77
38 180 0 130 -14 189 -65 271 -45 74 -51 116 -16 124 137 34 247 42 286 22z
m-2254 -57 c192 -5 412 -5 505 -1 91 5 166 8 168 6 1 -1 -5 -21 -13 -44 -8
-24 -20 -71 -26 -107 l-11 -63 -27 13 c-36 19 -112 30 -150 21 -19 -4 -58 -32
-96 -69 -70 -67 -84 -106 -47 -139 51 -47 195 -68 292 -43 73 19 73 19 91 -59
22 -97 74 -190 143 -261 35 -37 86 -80 113 -95 26 -16 41 -29 33 -29 -8 0
-127 7 -265 15 -137 8 -333 15 -435 15 -161 0 -203 -3 -320 -26 -126 -25 -141
-26 -220 -15 l-86 12 -22 232 c-15 156 -22 283 -20 387 2 85 -1 182 -5 214
l-9 59 34 -7 c18 -4 186 -11 373 -16z m635 -301 c0 -29 -186 -52 -209 -26 -8
11 -6 18 10 33 17 15 36 19 94 19 40 0 77 3 81 8 9 9 24 -12 24 -34z m-350
-647 c167 -26 1949 -40 2018 -17 19 6 22 4 22 -18 0 -35 -22 -40 -122 -27
-165 22 -195 22 -324 4 -152 -21 -398 -23 -1244 -10 -300 5 -638 9 -751 10
-211 1 -239 6 -239 42 0 18 43 17 95 -1 56 -20 120 -18 265 10 125 24 159 25
280 7z"/>
<path d="M2415 1690 c-66 -9 -113 -35 -120 -63 -4 -13 2 -47 12 -77 15 -47 24
-58 63 -80 40 -22 57 -25 145 -25 110 0 191 18 205 46 6 10 10 44 10 77 0 72
-20 103 -78 120 -43 13 -157 14 -237 2z m223 -102 c35 -35 -1 -49 -130 -51
-71 -2 -108 10 -108 33 0 23 217 39 238 18z"/>
<path d="M1295 1637 c-21 -21 -35 -45 -35 -59 0 -34 49 -96 82 -103 56 -13
148 31 148 70 0 51 -62 115 -119 122 -36 5 -44 2 -76 -30z"/>
<path d="M1704 1320 c-33 -11 -74 -32 -89 -46 -16 -15 -50 -40 -77 -56 -30
-19 -56 -45 -68 -68 -35 -68 -63 -190 -63 -272 -1 -104 38 -183 137 -283 78
-78 116 -100 203 -116 74 -14 384 -6 435 12 79 26 132 92 171 214 13 37 15 63
9 102 -5 28 -5 80 0 115 12 77 3 103 -65 195 -36 48 -61 70 -105 92 -33 16
-72 41 -88 54 -44 37 -83 53 -155 66 -94 16 -175 13 -245 -9z m288 -98 c100
-35 222 -133 261 -209 10 -19 15 -64 15 -143 1 -135 -23 -226 -70 -265 -40
-34 -138 -48 -308 -44 -136 4 -148 6 -190 31 -57 34 -154 130 -175 173 -29 62
-36 131 -21 203 27 125 50 159 154 219 114 67 214 77 334 35z"/>
<path d="M4498 1630 c-51 -15 -89 -45 -108 -85 -44 -91 -13 -176 86 -242 17
-11 16 -12 -8 -7 -19 4 -32 0 -47 -15 -21 -21 -21 -26 -21 -604 0 -486 2 -586
14 -602 12 -17 30 -20 129 -23 l115 -4 7 503 c3 277 5 558 3 624 l-3 120 -42
-1 c-24 -1 -43 2 -43 7 0 5 6 9 14 9 22 0 81 75 94 117 12 42 1 112 -24 150
-27 42 -112 69 -166 53z"/>
<path d="M8948 1286 c-63 -21 -68 -21 -68 -5 0 17 -9 18 -102 13 -135 -7 -147
-10 -158 -40 -6 -15 -10 -260 -10 -615 l0 -589 135 0 135 0 0 468 c0 440 1
470 18 485 31 28 75 32 96 8 16 -17 31 -21 88 -21 l68 0 0 141 0 140 -32 13
c-64 26 -100 26 -170 2z"/>
<path d="M9475 1290 c-154 -51 -261 -194 -296 -396 -16 -92 -6 -390 15 -469
44 -161 131 -282 242 -336 146 -72 310 -41 456 87 35 30 35 32 46 145 6 62 10
115 9 116 -1 1 -45 -23 -97 -53 -151 -86 -237 -104 -301 -61 -41 28 -95 131
-105 200 l-6 47 244 0 c196 0 248 3 264 14 18 14 19 27 18 193 -2 239 -25 322
-120 423 -92 98 -237 134 -369 90z m175 -267 c39 -40 60 -103 60 -183 l0 -40
-136 0 -136 0 6 48 c13 89 37 151 73 182 48 42 85 40 133 -7z"/>
<path d="M8080 1279 c-41 -11 -106 -37 -145 -57 -66 -35 -70 -39 -73 -74 -2
-20 2 -55 8 -76 15 -56 44 -65 135 -41 77 20 150 24 189 9 35 -13 66 -78 66
-138 l0 -49 -87 -6 c-109 -7 -183 -34 -259 -96 -103 -83 -151 -205 -142 -363
6 -113 33 -172 112 -246 70 -65 112 -82 207 -82 47 0 78 7 116 24 l52 25 3
-27 3 -27 133 -3 132 -3 0 428 c0 445 -7 558 -41 647 -55 147 -216 208 -409
155z m180 -789 l0 -131 -47 -20 c-70 -30 -130 -30 -154 -1 -56 70 -37 200 36
248 30 20 76 32 128 33 l37 1 0 -130z"/>
</g>
</svg>
